<?xml version="1.0" encoding="UTF-8" standalone="no"?>
<svg
   xmlns:dc="http://purl.org/dc/elements/1.1/"
   xmlns:cc="http://creativecommons.org/ns#"
   xmlns:rdf="http://www.w3.org/1999/02/22-rdf-syntax-ns#"
   xmlns:svg="http://www.w3.org/2000/svg"
   xmlns="http://www.w3.org/2000/svg"
   xmlns:sodipodi="http://sodipodi.sourceforge.net/DTD/sodipodi-0.dtd"
   xmlns:inkscape="http://www.inkscape.org/namespaces/inkscape"
   inkscape:version="1.0 (4035a4fb49, 2020-05-01)"
   sodipodi:docname="icon_search.svg"
   version="1.1"
   width="512"
   viewBox="0 0 551.13 551.13"
   height="512"
   enable-background="new 0 0 551.13 551.13"
   id="Capa_1">
  <metadata
     id="metadata9">
    <rdf:RDF>
      <cc:Work
         rdf:about="">
        <dc:format>image/svg+xml</dc:format>
        <dc:type
           rdf:resource="http://purl.org/dc/dcmitype/StillImage" />
        <dc:title></dc:title>
      </cc:Work>
    </rdf:RDF>
  </metadata>
  <defs
     id="defs7" />
  <sodipodi:namedview
     inkscape:current-layer="Capa_1"
     inkscape:window-maximized="0"
     inkscape:window-y="0"
     inkscape:window-x="0"
     inkscape:cy="256"
     inkscape:cx="256"
     inkscape:zoom="1.6640625"
     showgrid="false"
     id="namedview5"
     inkscape:window-height="1023"
     inkscape:window-width="1688"
     inkscape:pageshadow="2"
     inkscape:pageopacity="0"
     guidetolerance="10"
     gridtolerance="10"
     objecttolerance="10"
     borderopacity="1"
     bordercolor="#666666"
     pagecolor="#ffffff" />
  <path
     id="path2"
     d="m551.13 526.776-186.785-186.785c30.506-36.023 49.003-82.523 49.003-133.317 0-113.967-92.708-206.674-206.674-206.674s-206.674 92.707-206.674 206.674 92.707 206.674 206.674 206.674c50.794 0 97.294-18.497 133.317-49.003l186.785 186.785s24.354-24.354 24.354-24.354zm-344.456-147.874c-94.961 0-172.228-77.267-172.228-172.228s77.267-172.228 172.228-172.228 172.228 77.267 172.228 172.228-77.267 172.228-172.228 172.228z" />
  <path
     transform="scale(1.0764258)"
     id="path11"
     d="m 402.62798,424.89656 -86.83455,-86.80123 -4.80751,3.91887 c -13.10642,10.68376 -34.23287,22.70907 -51.38029,29.24597 -40.88667,15.58674 -86.47035,16.51001 -128.11997,2.59501 C 56.597984,348.83543 4.268754,279.88548 0.65082081,201.46479 -0.66209632,173.00659 3.8782002,145.8936 14.211018,120.48826 44.604951,45.758581 117.70913,-2.0511921 197.70892,0.48153906 225.59034,1.3642431 250.99985,7.5965752 275.53052,19.569275 330.5212,46.408617 369.36368,97.37326 380.61266,157.44601 c 2.73807,14.62206 3.7125,37.88054 2.21557,52.88263 -3.7047,37.12793 -17.0469,70.04534 -40.76449,100.57265 l -3.9028,5.02335 86.76791,86.76947 86.7679,86.76945 -11.11711,11.11712 -11.11712,11.11711 z M 212.67893,350.9093 c 28.71811,-3.74023 56.41055,-15.52415 79.37741,-33.77735 8.09901,-6.43679 21.03827,-19.67428 27.15399,-27.77984 16.78487,-22.24609 27.16283,-46.84995 31.43118,-74.51643 1.36395,-8.84082 1.84437,-27.48592 0.95369,-37.01193 C 348.06723,140.09179 332.28662,106.16822 305.88267,79.555503 291.03648,64.591931 275.6974,53.886975 257.37202,45.700511 226.09886,31.729907 190.66596,28.120509 157.50765,35.527755 110.11035,46.11585 70.211401,77.282482 48.740633,120.48992 33.060095,152.04518 28.253457,185.44187 34.340202,220.5446 c 4.338194,25.01869 16.270097,51.19501 32.734033,71.81221 5.022378,6.28934 17.55347,18.89252 23.823883,23.96092 25.343802,20.48555 56.114062,32.79053 88.837462,35.526 8.0736,0.6749 24.07067,0.22115 32.94335,-0.93443 z"
     style="fill:#f9f9f9;stroke-width:0.600939" />
</svg>
